<?xml version="1.0" encoding="UTF-8" standalone="no"?>
<!-- Created with Inkscape (http://www.inkscape.org/) -->

<svg
   width="34.591709mm"
   height="34.630112mm"
   viewBox="0 0 34.591709 34.630112"
   version="1.1"
   id="svg2879"
   inkscape:version="1.1.2 (0a00cf5339, 2022-02-04)"
   sodipodi:docname="handcuff.svg"
   xmlns:inkscape="http://www.inkscape.org/namespaces/inkscape"
   xmlns:sodipodi="http://sodipodi.sourceforge.net/DTD/sodipodi-0.dtd"
   xmlns="http://www.w3.org/2000/svg"
   xmlns:svg="http://www.w3.org/2000/svg">
  <sodipodi:namedview
     id="namedview2881"
     pagecolor="#ffffff"
     bordercolor="#666666"
     borderopacity="1.0"
     inkscape:pageshadow="2"
     inkscape:pageopacity="0.0"
     inkscape:pagecheckerboard="0"
     inkscape:document-units="mm"
     showgrid="false"
     fit-margin-top="0"
     fit-margin-left="0"
     fit-margin-right="0"
     fit-margin-bottom="0"
     inkscape:zoom="6.1656963"
     inkscape:cx="65.442731"
     inkscape:cy="65.442731"
     inkscape:window-width="2486"
     inkscape:window-height="1016"
     inkscape:window-x="74"
     inkscape:window-y="27"
     inkscape:window-maximized="1"
     inkscape:current-layer="layer1" />
  <defs
     id="defs2876" />
  <g
     inkscape:label="Camada 1"
     inkscape:groupmode="layer"
     id="layer1"
     transform="translate(-124.16625,-101.6257)">
    <path
       d="m 141.62861,102.28719 h -0.33292 c -9.09492,0 -16.46798,7.37306 -16.46798,16.46802 v 0.37147 c 0,0.15805 0.007,0.31398 0.0119,0.47096 0.24998,8.87624 7.51914,15.99671 16.45613,15.99671 h 0.33306 c 0.34325,0 0.68308,-0.0138 1.02126,-0.0346 8.61882,-0.52776 15.44644,-7.68138 15.44644,-16.4331 v -0.37147 c 0,-9.09496 -7.37291,-16.46802 -16.46784,-16.46802"
       style="fill:none;fill-opacity:1;fill-rule:nonzero;stroke:#ffffff;stroke-width:1.32292;stroke-miterlimit:4;stroke-dasharray:none;stroke-opacity:1;opacity:0.05"
       id="path12" />
    <path
       id="path18"
       style="fill:#ffffff;fill-opacity:1;fill-rule:nonzero;stroke:none;stroke-width:0.0352777;opacity:0.05"
       d="m 139.29048,112.68294 c -0.85492,0 -1.52497,0.39153 -1.52497,0.89142 0,0.0798 0.0174,0.15683 0.0496,0.22996 l -1.13275,0.88056 c -0.26791,-0.17461 -0.63093,-0.14449 -0.8661,0.0904 l -0.49816,0.49867 -0.33279,-0.33331 c -0.29821,-0.2981 -0.78184,-0.2981 -1.08004,0 l -1.31982,1.3193 c -1.61191,-0.55774 -3.47076,-0.19811 -4.75785,1.08882 -1.796,1.796 -1.796,4.70801 0,6.504 0.8694,0.86924 2.0005,1.31778 3.13986,1.34565 0,0 0.6245,0.0267 0.64337,-0.68833 0.019,-0.65122 -0.62218,-0.71623 -0.62218,-0.71623 -0.79333,-0.0176 -1.58106,-0.32946 -2.18643,-0.93483 -1.24741,-1.24742 -1.24741,-3.2691 0,-4.51652 1.24725,-1.24742 3.26962,-1.24742 4.51704,0 0.36463,0.36477 0.62266,0.79541 0.77411,1.25367 l 1.35237,-0.44235 1.33584,-1.33635 c 0.2982,-0.2981 0.2982,-0.78159 0,-1.08004 l -0.47646,-0.47646 0.49816,-0.49867 c 0.21552,-0.21555 0.25897,-0.53775 0.13023,-0.79634 l 1.11569,-0.86816 c 0.27431,0.22416 0.72373,0.36794 1.24127,0.36794 0.66074,0 1.21048,-0.23402 1.42627,-0.57103 l 1.20354,0.19069 c 0.0601,0.46543 0.70599,0.82062 1.51981,0.82062 0.55466,0 1.03115,-0.16475 1.29759,-0.41703 l 1.20768,0.59428 c -0.0667,0.23348 -0.008,0.49512 0.1757,0.67903 l 0.49816,0.49867 -0.47646,0.47646 c -0.2982,0.29845 -0.2982,0.78194 0,1.08004 l 1.33584,1.33635 0.15606,0.0512 c -0.44094,1.56153 -0.0655,3.28972 1.13792,4.49327 0.73798,0.73783 1.6896,1.18314 2.70319,1.29346 0.19074,0.21872 0.48111,0.2067 0.48111,0.2067 1.13937,-0.0279 2.27047,-0.47641 3.13986,-1.34565 1.79585,-1.79599 1.79585,-4.708 0,-6.504 -1.28707,-1.28693 -3.14597,-1.64656 -4.75785,-1.08882 l -1.3193,-1.3193 c -0.29824,-0.2981 -0.78183,-0.2981 -1.08004,0 l -0.33331,0.33331 -0.49816,-0.49867 c -0.26549,-0.26518 -0.69308,-0.26904 -0.96377,-0.0124 l -1.20251,-0.59169 c 0.0148,-0.0508 0.0227,-0.10293 0.0227,-0.15658 0,-0.49989 -0.6695,-0.89142 -1.52445,-0.89142 -0.67584,0 -1.23584,0.24471 -1.44074,0.59428 l -1.18649,-0.18707 c -0.0379,-0.47866 -0.69267,-0.84749 -1.52239,-0.84749 z m 0,0.37569 c 0.56146,0 1.00138,0.19808 1.11828,0.40772 l -0.32453,-0.0512 c -0.10224,-0.0162 -0.19834,0.0538 -0.21446,0.15607 -0.0163,0.1023 0.0538,0.19858 0.15606,0.21445 l 0.25012,0.0398 c -0.1971,0.1486 -0.55571,0.26459 -0.98547,0.26459 -0.39535,0 -0.73071,-0.098 -0.93534,-0.22945 l 0.23151,-0.18035 c 0.0817,-0.0639 0.0966,-0.1817 0.0331,-0.26355 -0.0635,-0.0818 -0.18171,-0.0964 -0.26355,-0.0326 l -0.21394,0.1664 c 0.0301,-0.23744 0.5114,-0.49196 1.14825,-0.49196 z m 4.14962,0.44028 c 0.64237,0 1.12577,0.25901 1.14825,0.49816 l -0.34262,-0.16847 c -0.0929,-0.0459 -0.20525,-0.007 -0.25115,0.0858 -0.0457,0.0928 -0.008,0.20528 0.0853,0.25115 l 0.28629,0.14107 c -0.20538,0.12855 -0.53639,0.22376 -0.92604,0.22376 -0.53527,0 -0.96041,-0.18023 -1.10019,-0.37879 l 0.32659,0.0517 c 0.10241,0.0162 0.19871,-0.0538 0.21497,-0.15606 0.0161,-0.10231 -0.0537,-0.19875 -0.15606,-0.21498 l -0.29869,-0.047 c 0.18998,-0.15881 0.56273,-0.28629 1.01338,-0.28629 z m -7.10035,1.39113 c 0.0232,0 0.0464,0.003 0.0692,0.007 l -0.16381,0.12764 c -0.0819,0.0635 -0.0967,0.18171 -0.0331,0.26355 0.0635,0.0819 0.18185,0.0966 0.26355,0.0331 l 0.20413,-0.15865 c 0.0252,0.11274 -0.005,0.23533 -0.093,0.32298 -0.13632,0.13617 -0.35734,0.13617 -0.49351,0 -0.13628,-0.13618 -0.13628,-0.35699 0,-0.49351 0.0681,-0.0681 0.15718,-0.10232 0.24649,-0.10232 z m 10.24486,0 c 0.0893,0 0.17843,0.0342 0.24649,0.10232 0.13628,0.13652 0.13628,0.35734 0,0.49351 -0.13613,0.13617 -0.35723,0.13617 -0.49351,0 -0.0713,-0.0714 -0.10471,-0.16588 -0.10128,-0.25942 l 0.24288,0.11938 c 0.093,0.0459 0.20539,0.008 0.25115,-0.0853 0.0457,-0.0931 0.008,-0.20564 -0.0853,-0.25115 l -0.19069,-0.0941 c 0.0417,-0.0167 0.0859,-0.0253 0.13023,-0.0253 z m 5.27926,2.51664 c 0.81744,0 1.63514,0.31215 2.25878,0.93586 1.24738,1.24742 1.24738,3.2691 0,4.51652 -0.60537,0.60537 -1.39359,0.91719 -2.18695,0.93483 0,0 -0.17503,0.0188 -0.33951,0.12867 -0.77547,-0.084 -1.50226,-0.42123 -2.06448,-0.9834 -0.90851,-0.90863 -1.1974,-2.21192 -0.87643,-3.40031 l 0.17622,0.0574 c 0.15145,-0.45826 0.40948,-0.8889 0.77411,-1.25367 0.6237,-0.62371 1.44083,-0.93586 2.25826,-0.93586 z" />
  </g>
</svg>
