<?xml version="1.0" encoding="UTF-8" standalone="no"?>
<!-- Created with Inkscape (http://www.inkscape.org/) -->

<svg
   width="34.59198mm"
   height="34.630093mm"
   viewBox="0 0 34.59198 34.630093"
   version="1.1"
   id="svg4996"
   inkscape:version="1.1.2 (0a00cf5339, 2022-02-04)"
   sodipodi:docname="jail.svg"
   xmlns:inkscape="http://www.inkscape.org/namespaces/inkscape"
   xmlns:sodipodi="http://sodipodi.sourceforge.net/DTD/sodipodi-0.dtd"
   xmlns="http://www.w3.org/2000/svg"
   xmlns:svg="http://www.w3.org/2000/svg">
  <sodipodi:namedview
     id="namedview4998"
     pagecolor="#ffffff"
     bordercolor="#666666"
     borderopacity="1.0"
     inkscape:pageshadow="2"
     inkscape:pageopacity="0.0"
     inkscape:pagecheckerboard="0"
     inkscape:document-units="mm"
     showgrid="false"
     fit-margin-top="0"
     fit-margin-left="0"
     fit-margin-right="0"
     fit-margin-bottom="0"
     inkscape:zoom="6.1656997"
     inkscape:cx="65.442695"
     inkscape:cy="65.442695"
     inkscape:window-width="2486"
     inkscape:window-height="1016"
     inkscape:window-x="74"
     inkscape:window-y="27"
     inkscape:window-maximized="1"
     inkscape:current-layer="layer1" />
  <defs
     id="defs4993" />
  <g
     inkscape:label="Camada 1"
     inkscape:groupmode="layer"
     id="layer1"
     transform="translate(-41.822493,-64.676661)">
    <path
       d="m 59.284642,65.338121 h -0.33267 c -7.813674,0 -14.351352,5.443785 -16.040099,12.744097 -0.276931,1.197081 -0.42792,2.442704 -0.42792,3.723993 v 0.37151 c 0,9.094929 7.372703,16.467571 16.468019,16.467571 h 0.33267 c 1.8796,0 3.683705,-0.318878 5.366455,-0.898758 6.459361,-2.226496 11.101917,-8.353802 11.101917,-15.569201 v -0.37084 c 0,-9.095175 -7.373056,-16.468372 -16.468372,-16.468372"
       style="fill:none;fill-opacity:1;fill-rule:nonzero;stroke:#ffffff;stroke-width:1.32292;stroke-miterlimit:4;stroke-dasharray:none;stroke-opacity:1;opacity:0.05"
       id="path1048" />
    <path
       id="path1054"
       style="fill:#ffffff;fill-opacity:1;fill-rule:nonzero;stroke:none;stroke-width:0.0352777;opacity:0.05"
       d="m 47.851216,73.142675 v 2.33939 h 0.489373 v 12.649359 h -0.489373 v 2.33939 h 24.031091 v -2.33939 H 71.359339 V 75.482065 h 0.522968 v -2.33939 z m 5.521627,0.717267 c 0.249766,0 0.452683,0.202332 0.452683,0.45217 0,0.250119 -0.202917,0.452687 -0.452683,0.452684 -0.250122,0 -0.452687,-0.202565 -0.452687,-0.452684 0,-0.249838 0.202565,-0.45217 0.452687,-0.45217 z m 4.145999,0 c 0.250119,0 0.452168,0.202332 0.452168,0.45217 0,0.250119 -0.202049,0.452687 -0.452168,0.452684 -0.249766,0 -0.452686,-0.202565 -0.452686,-0.452684 0,-0.249838 0.20292,-0.45217 0.452686,-0.45217 z m 4.402831,0 c 0.249767,0 0.45217,0.202332 0.45217,0.45217 0,0.250119 -0.202403,0.452687 -0.45217,0.452684 -0.250119,0 -0.452684,-0.202565 -0.452686,-0.452684 0,-0.249838 0.202567,-0.45217 0.452686,-0.45217 z m 4.402833,0 c 0.250119,0 0.452686,0.202332 0.452684,0.45217 0,0.250119 -0.202565,0.452687 -0.452684,0.452684 -0.249766,0 -0.452686,-0.202565 -0.452686,-0.452684 0,-0.249838 0.20292,-0.45217 0.452686,-0.45217 z m -15.779398,1.622123 h 3.065963 v 12.649359 h -3.065963 z m 4.38681,0 h 4.186309 v 12.649359 h -4.186309 z m 5.50716,0 h 4.155818 v 12.649359 h -4.155818 z m 5.476668,0 h 3.238561 V 88.131424 H 65.915746 Z M 53.372843,88.848691 c 0.249766,0 0.452683,0.202472 0.452683,0.45217 0,0.250119 -0.202917,0.452686 -0.452683,0.452686 -0.250122,0 -0.452687,-0.202567 -0.452687,-0.452686 0,-0.249698 0.202565,-0.45217 0.452687,-0.45217 z m 4.145999,0 c 0.250119,0 0.452168,0.202472 0.452168,0.45217 0,0.250119 -0.202049,0.452686 -0.452168,0.452686 -0.249766,0 -0.452686,-0.202567 -0.452686,-0.452686 0,-0.249698 0.20292,-0.45217 0.452686,-0.45217 z m 4.402831,0 c 0.249767,0 0.45217,0.202472 0.45217,0.45217 0,0.250119 -0.202403,0.452686 -0.45217,0.452686 -0.250119,0 -0.452684,-0.202567 -0.452686,-0.452686 0,-0.249698 0.202567,-0.45217 0.452686,-0.45217 z m 4.402833,0 c 0.250119,0 0.452686,0.202472 0.452684,0.45217 0,0.250119 -0.202565,0.452686 -0.452684,0.452686 -0.249766,0 -0.452686,-0.202567 -0.452686,-0.452686 0,-0.249698 0.20292,-0.45217 0.452686,-0.45217 z" />
  </g>
</svg>
