<?xml version="1.0" encoding="UTF-8" standalone="no"?>
<svg
   width="280"
   height="70"
   viewBox="0 0 280 70"
   version="1.1"
   xml:space="preserve"
   style="clip-rule:evenodd;fill-rule:evenodd;stroke-miterlimit:10"
   id="svg918"
   sodipodi:docname="justa.svg"
   inkscape:version="1.1.2 (0a00cf5339, 2022-02-04)"
   xmlns:inkscape="http://www.inkscape.org/namespaces/inkscape"
   xmlns:sodipodi="http://sodipodi.sourceforge.net/DTD/sodipodi-0.dtd"
   xmlns="http://www.w3.org/2000/svg"
   xmlns:svg="http://www.w3.org/2000/svg"><defs
   id="defs922">
        
        <clipPath
   id="_clip1">
            <rect
   x="0"
   y="0"
   width="335.79599"
   height="335.84201"
   id="rect892" />
        </clipPath>
        
    
            
            
            
            
        
                
            
                
            
                
            
                
                
            
                </defs><sodipodi:namedview
   id="namedview920"
   pagecolor="#ffffff"
   bordercolor="#666666"
   borderopacity="1.0"
   inkscape:pageshadow="2"
   inkscape:pageopacity="0.0"
   inkscape:pagecheckerboard="0"
   showgrid="false"
   fit-margin-top="0"
   fit-margin-left="0"
   fit-margin-right="0"
   fit-margin-bottom="0"
   inkscape:zoom="3.0041996"
   inkscape:cx="142.3008"
   inkscape:cy="35.783242"
   inkscape:window-width="1846"
   inkscape:window-height="1016"
   inkscape:window-x="74"
   inkscape:window-y="27"
   inkscape:window-maximized="1"
   inkscape:current-layer="svg918"
   inkscape:snap-global="false" />
    <rect
   x="0"
   y="0"
   width="284.60159"
   height="72.018616"
   style="fill:none;stroke-width:0.42632"
   id="rect890" /><path
   d="m 45.926042,35.820136 c 0,7.254356 -5.880857,13.135213 -13.135215,13.135213 -7.254358,0 -13.135215,-5.880857 -13.135215,-13.135213 0,-7.254357 5.880857,-13.135213 13.135215,-13.135213 7.254358,0 13.135215,5.880856 13.135215,13.135213"
   style="fill-rule:nonzero;stroke-width:0.214442"
   id="path895" /><path
   d="m 18.989433,49.294381 c 7.581811,7.602181 20.008724,7.574089 27.62506,-0.06262 7.475448,-7.498606 7.548359,-19.70164 0.162333,-27.223406 C 39.0953,14.187446 26.999914,14.062212 19.250409,21.724437 11.498545,29.388163 11.38339,41.667753 18.989433,49.294381 M 57.298851,10.937793 c 0.140674,8.690903 0.679352,17.451071 0.330026,26.180359 C 57.115718,50.010831 45.246782,60.70548 32.503782,60.39068 18.613302,60.047787 8.2180118,49.633414 7.9340906,35.773601 7.6731147,23.03575 18.385564,11.217854 31.266666,10.698475 c 8.726931,-0.351684 17.829136,0.131668 26.37808,0.239318"
   style="fill:#ffed00;fill-rule:nonzero;stroke:#ffed00;stroke-width:2.20875px"
   id="path899" /><path
   d="m 32.918043,64.217632 c -0.212726,0 -0.425453,-0.003 -0.638608,-0.0079 C 24.517921,64.017987 17.374859,61.03853 12.165419,55.819442 6.9551224,50.599067 3.9981818,43.45815 3.8394947,35.712078 l 3.585899,-0.07312 C 7.7146759,49.766389 18.204535,60.274259 32.36757,60.623585 c 13.050082,0.32488 24.946037,-10.6865 25.458553,-23.55945 0.261191,-6.5289 0.0579,-13.374101 -0.138744,-19.993924 -0.06841,-2.306752 -0.138529,-4.676336 -0.188065,-7.007749 H 38.487316 V 6.4754917 h 22.536566 l 0.02895,1.7644284 c 0.04589,2.8662309 0.13467,5.8439719 0.220232,8.7234989 0.198144,6.681582 0.403151,13.590258 0.137028,20.243963 -0.578993,14.542166 -13.813709,27.009821 -28.492049,27.01025"
   style="fill:#212121;fill-rule:nonzero;stroke-width:0.214442"
   id="path903" /><g
   aria-label="USTA"
   id="text911"
   style="font-weight:300;font-size:80.0583px;font-family:Gotham-Light, Gotham;stroke-width:0.214442"><path
     d="m 114.20306,6.58293 h -6.32461 v 32.583727 q 0,9.206704 -4.56332,13.850085 -4.563324,4.643381 -12.328979,4.643381 -8.085888,0 -12.649211,-4.883556 -4.483264,-4.883556 -4.483264,-14.010202 V 6.58293 H 67.52907 v 32.583727 q 0,5.924313 1.681224,10.487636 1.681225,4.563323 4.72344,7.685597 3.122273,3.042215 7.365363,4.643381 4.323148,1.521108 9.526937,1.521108 5.283848,0 9.526936,-1.521108 4.32315,-1.601166 7.36536,-4.72344 3.12228,-3.122273 4.8035,-7.765654 1.68123,-4.643381 1.68123,-10.80787 z"
     id="path850" /><path
     d="m 134.05742,20.593132 q 0,-1.921399 0.80059,-3.602624 0.88064,-1.681224 2.40175,-2.882098 1.60116,-1.200875 3.76274,-1.921399 2.24163,-0.720525 4.96361,-0.720525 4.32315,0 8.246,1.441049 4.00292,1.44105 7.92578,4.643382 l 3.68268,-4.883556 Q 161.51742,9.2248538 156.87404,7.5436295 152.31072,5.782347 146.14623,5.782347 q -4.00292,0 -7.36537,1.2008745 -3.36245,1.1208161 -5.84425,3.2023315 -2.48181,2.001458 -3.8428,4.803498 -1.36099,2.80204 -1.36099,6.164489 0,3.522565 1.12081,6.08443 1.12082,2.561866 3.44251,4.483265 2.32169,1.921399 5.84426,3.28239 3.60262,1.360991 8.40612,2.401749 4.4032,0.9607 7.20524,2.001457 2.8821,1.040758 4.48327,2.321691 1.60117,1.280933 2.24163,2.882099 0.64047,1.521107 0.64047,3.522565 0,4.323148 -3.44251,6.965071 -3.36245,2.641924 -9.04659,2.641924 -5.84425,0 -10.32752,-1.921399 -4.48326,-2.001457 -8.88647,-6.004372 l -3.92285,4.643381 q 5.04367,4.563323 10.56769,6.804955 5.60408,2.161574 12.32898,2.161574 4.16303,0 7.6856,-1.120816 3.52256,-1.120816 6.00437,-3.202332 2.56186,-2.081515 4.00291,-5.043672 1.44105,-2.962157 1.44105,-6.564781 0,-6.484722 -4.48326,-10.167403 -4.40321,-3.682682 -13.77003,-5.764198 -4.64338,-0.960699 -7.60554,-2.001457 -2.96215,-1.120816 -4.64338,-2.401749 -1.68122,-1.360991 -2.32169,-2.962157 -0.64047,-1.601166 -0.64047,-3.602623 z"
     id="path852" /><path
     d="m 200.50581,12.427186 h 18.8137 V 6.58293 h -44.03206 v 5.844256 h 18.8137 v 50.196551 h 6.40466 z"
     id="path854" /><path
     d="M 250.62191,6.1826385 H 244.6976 L 219.159,62.623737 h 6.48472 l 6.64484,-14.810784 h 30.50221 l 6.56478,14.810784 h 6.80496 z m 9.68706,35.9461755 h -25.5386 L 247.5797,13.548002 Z"
     id="path856" /></g>
</svg>
