<?xml version="1.0" encoding="UTF-8" standalone="no"?>
<!-- Created with Inkscape (http://www.inkscape.org/) -->

<svg
   width="34.591625mm"
   height="34.630081mm"
   viewBox="0 0 34.591625 34.630081"
   version="1.1"
   id="svg4236"
   inkscape:version="1.1.2 (0a00cf5339, 2022-02-04)"
   sodipodi:docname="police.svg"
   xmlns:inkscape="http://www.inkscape.org/namespaces/inkscape"
   xmlns:sodipodi="http://sodipodi.sourceforge.net/DTD/sodipodi-0.dtd"
   xmlns="http://www.w3.org/2000/svg"
   xmlns:svg="http://www.w3.org/2000/svg">
  <sodipodi:namedview
     id="namedview4238"
     pagecolor="#ffffff"
     bordercolor="#666666"
     borderopacity="1.0"
     inkscape:pageshadow="2"
     inkscape:pageopacity="0.0"
     inkscape:pagecheckerboard="0"
     inkscape:document-units="mm"
     showgrid="false"
     fit-margin-top="0"
     fit-margin-left="0"
     fit-margin-right="0"
     fit-margin-bottom="0"
     inkscape:zoom="6.1657017"
     inkscape:cx="65.442673"
     inkscape:cy="65.442673"
     inkscape:window-width="2486"
     inkscape:window-height="1016"
     inkscape:window-x="74"
     inkscape:window-y="27"
     inkscape:window-maximized="1"
     inkscape:current-layer="layer1" />
  <defs
     id="defs4233" />
  <g
     inkscape:label="Camada 1"
     inkscape:groupmode="layer"
     id="layer1"
     transform="translate(-41.470793,-75.93733)">
    <path
       d="M 58.932922,76.59879 H 58.5999 c -8.975372,0 -16.269052,7.182203 -16.458847,16.11242 -0.0025,0.118533 -0.0088,0.236361 -0.0088,0.3556 v 0.371475 c 0,9.094965 7.373055,16.467665 16.467666,16.467665 h 0.333022 c 0.347486,0 0.691445,-0.0141 1.033639,-0.0353 8.613069,-0.5341 15.43438,-7.68491 15.43438,-16.432385 V 93.06681 c 0,-9.094964 -7.373055,-16.46802 -16.468019,-16.46802"
       style="fill:none;fill-opacity:1;fill-rule:nonzero;stroke:#ffffff;stroke-width:1.32292;stroke-miterlimit:4;stroke-dasharray:none;stroke-opacity:1;opacity:0.05"
       id="path60" />
    <path
       d="m 67.143825,88.43766 c 0.101953,-1.658409 1.47955,-2.270831 1.606903,-2.755548 0.127705,-0.484363 -3.188759,-3.316111 -3.571522,-3.393016 -0.382412,-0.0762 -2.117373,1.097139 -2.9591,1.097139 -0.842081,0 -2.439459,-1.097139 -3.119614,-1.097139 -0.680156,0 -2.277533,1.097139 -3.119614,1.097139 -0.841728,0 -2.576689,-1.173339 -2.9591,-1.097139 -0.382764,0.0769 -3.699228,2.908653 -3.571522,3.393016 0.127353,0.484717 1.50495,1.097139 1.607255,2.755548 0.07655,1.247422 -3.444169,7.030155 -1.964619,11.461749 1.479903,4.431241 7.092244,4.456991 7.806619,4.737451 0.714023,0.28046 1.519414,1.47955 2.200981,1.47955 0.681566,0 1.486958,-1.19909 2.201333,-1.47955 0.714022,-0.28046 6.326717,-0.30621 7.806267,-4.737451 1.47955,-4.431594 -2.041173,-10.214327 -1.964267,-11.461749"
       style="fill:none;fill-opacity:1;fill-rule:nonzero;stroke:#ffffff;stroke-width:1.32292;stroke-miterlimit:4;stroke-dasharray:none;stroke-opacity:1;opacity:0.05"
       id="path64" />
  </g>
</svg>
